# xmcd CD database file
# Copyright (C) 1995-1998 Ti Kan
#
# Track frame offsets:
#	150
#	16467
#	33852
#	54355
#	71555
#	93342
#	112152
#	128957
#	143880
#	163600
#
# Disc length: 2467 seconds
#
# Revision: 1
# Processed by: cddbd v1.4PL0 Copyright (c) Steve Scherf et al.
# Submitted via: CDex 1.30
#
DISCID=8609a10a
DTITLE=Larry Schuba - Großstadtsinfonie
DYEAR=1994
DGENRE=Country
TTITLE0=Liebe könnt Ihr nicht verbieten
TTITLE1=Dieser Song ist nur für Dich
TTITLE2=Regentropfen
TTITLE3=Schwesterherz
TTITLE4=Immerzu
TTITLE5=Großstadtsinfonie
TTITLE6=Hab schon nicht mehr dran geglaubt
TTITLE7=Das war´s
TTITLE8=Das ist wie Kino
TTITLE9=Viel kälter als Winter
EXTD=YEAR: 1994  ID3G:   2
EXTT0=
EXTT1=
EXTT2=
EXTT3=
EXTT4=
EXTT5=
EXTT6=
EXTT7=
EXTT8=
EXTT9=
PLAYORDER=
